<svg version="1.1" xmlns="http://www.w3.org/2000/svg">
  <defs>
    <svg id="health" xmlns="http://www.w3.org/2000/svg" viewBox="0 0 24 24" fill="inherit">
      <path
        fill-rule="evenodd"
        clip-rule="evenodd"
        d="M8.96173 18.4687C6.01943 16.2137 2 12.4886 2 8.96653C2 3.08262 7.50016 0.885859 12 5.43111C16.4998 0.885859 22 3.08262 22 8.9665C22 12.4887 17.9806 16.2137 15.0383 18.4687C13.7063 19.4896 13.0403 20 12 20C10.9597 20 10.2937 19.4896 8.96173 18.4687ZM16.5 6.25C16.9142 6.25 17.25 6.58579 17.25 7V8.25002H18.5C18.9142 8.25002 19.25 8.5858 19.25 9.00002C19.25 9.41423 18.9142 9.75002 18.5 9.75002H17.25V11C17.25 11.4142 16.9142 11.75 16.5 11.75C16.0858 11.75 15.75 11.4142 15.75 11V9.75002L14.5 9.75002C14.0858 9.75002 13.75 9.41423 13.75 9.00002C13.75 8.5858 14.0858 8.25002 14.5 8.25002H15.75V7C15.75 6.58579 16.0858 6.25 16.5 6.25Z"
        fill="inherit"
      />
    </svg>

    <svg id="car" xmlns="http://www.w3.org/2000/svg" viewBox="0 0 24 24" fill="inherit"><path fill-rule="evenodd" clip-rule="evenodd" d="M2 14.803v6.447c0 .414.336.75.75.75h1.614a.75.75 0 0 0 .74-.627L5.5 19h13l.395 2.373a.75.75 0 0 0 .74.627h1.615a.75.75 0 0 0 .75-.75v-6.447a5.954 5.954 0 0 0-1-3.303l-.78-1.17a1.994 1.994 0 0 1-.178-.33h.994a.75.75 0 0 0 .671-.415l.25-.5A.75.75 0 0 0 21.287 8H19.6l-.31-1.546a2.5 2.5 0 0 0-1.885-1.944C15.943 4.17 14.141 4 12 4c-2.142 0-3.943.17-5.405.51a2.5 2.5 0 0 0-1.886 1.944L4.399 8H2.714a.75.75 0 0 0-.67 1.085l.25.5a.75.75 0 0 0 .67.415h.995a1.999 1.999 0 0 1-.178.33L3 11.5c-.652.978-1 2.127-1 3.303zm15.961-4.799a4 4 0 0 0 .34.997H5.699c.157-.315.271-.65.34-.997l.632-3.157a.5.5 0 0 1 .377-.39C8.346 6.157 10 6 12 6c2 0 3.654.156 4.952.458a.5.5 0 0 1 .378.389l.631 3.157zM5.5 16a1.5 1.5 0 1 0 0-3 1.5 1.5 0 0 0 0 3zM20 14.5a1.5 1.5 0 1 1-3 0 1.5 1.5 0 0 1 3 0z" fill="inherit"/></svg>

    <svg id="home" xmlns="http://www.w3.org/2000/svg" viewBox="0 0 16 16" fill="inherit">
      <path fill-rule="evenodd" clip-rule="evenodd" d="M8 0L0 6V8H1V15H4V10H7V15H15V8H16V6L14 4.5V1H11V2.25L8 0ZM9 10H12V13H9V10Z" fill="inherit"/>
    </svg>

    <svg id='nav' viewBox="0 0 12 6" fill="inherit" xmlns="http://www.w3.org/2000/svg">
      <path d="M11 0.5L6 5.5L1 0.500001" stroke="inherit" stroke-linecap="round" stroke-linejoin="round"/>
    </svg>


    <svg id="check" xmlns="http://www.w3.org/2000/svg" xmlns:xlink="http://www.w3.org/1999/xlink" version="1.1"  viewBox="0 0 196.407 196.407" xml:space="preserve">
        <g>
	        <path  d="M56.084,189.137c-1.735,0.897-3.807,1.012-5.891-1.071L2.651,139.517   c-4.204-4.291-3.225-9.943,1.648-13.462c6.228-4.498,14.555-11.83,21.582-22.55c3.291-5.026,7.995-5.363,11.248-0.315   l11.727,18.205c3.258,5.053,7.006,11.389,9.018,10.677c0.816-0.288,1.806-0.995,2.986-2.393L156.169,9.877   c3.742-4.699,9.023-4.194,11.803,1.131l27.054,51.894c2.779,5.325,1.235,12.695-3.448,16.459L69.1,177.786   C64.422,181.55,59.272,187.5,56.084,189.137z"/>
      </g>
    </svg>

    <svg
      xmlns="http://www.w3.org/2000/svg"
      viewBox="0 0 50 50"
      id='spinner'
      fill="inherit"
      stroke="inherit"
      stroke-width="4"
      stroke-linecap="round"
    >
      <circle cx="25" cy="25" r="20" stroke-dasharray="90" stroke-dashoffset="30" />
    </svg>

    <svg id="sun" xmlns="http://www.w3.org/2000/svg" xmlns:xlink="http://www.w3.org/1999/xlink" fill="inherit"  version="1.1"  viewBox="0 0 207.628 207.628" xml:space="preserve">
      <circle cx="103.814" cy="103.814" r="45.868"/>
      <path d="M103.814,157.183c-29.427,0-53.368-23.941-53.368-53.368s23.941-53.368,53.368-53.368s53.368,23.941,53.368,53.368  S133.241,157.183,103.814,157.183z M103.814,65.446c-21.156,0-38.368,17.212-38.368,38.368s17.212,38.368,38.368,38.368  s38.368-17.212,38.368-38.368S124.97,65.446,103.814,65.446z"/>
      <path d="M103.814,39.385c-4.142,0-7.5-3.358-7.5-7.5V7.5c0-4.142,3.358-7.5,7.5-7.5s7.5,3.358,7.5,7.5v24.385  C111.314,36.027,107.956,39.385,103.814,39.385z"/>
      <path d="M103.814,207.628c-4.142,0-7.5-3.358-7.5-7.5v-24.385c0-4.142,3.358-7.5,7.5-7.5s7.5,3.358,7.5,7.5v24.385  C111.314,204.271,107.956,207.628,103.814,207.628z"/>
      <path d="M200.128,111.314h-24.385c-4.142,0-7.5-3.358-7.5-7.5s3.358-7.5,7.5-7.5h24.385c4.142,0,7.5,3.358,7.5,7.5  S204.271,111.314,200.128,111.314z"/>
      <path d="M31.885,111.314H7.5c-4.142,0-7.5-3.358-7.5-7.5s3.358-7.5,7.5-7.5h24.385c4.142,0,7.5,3.358,7.5,7.5  S36.027,111.314,31.885,111.314z"/>
      <path d="M154.676,60.452c-1.919,0-3.839-0.732-5.303-2.197c-2.929-2.929-2.929-7.678,0-10.606l17.243-17.242  c2.929-2.929,7.678-2.93,10.606,0c2.929,2.929,2.929,7.678,0,10.606l-17.243,17.242C158.515,59.72,156.595,60.452,154.676,60.452z"/>
      <path d="M35.709,179.419c-1.919,0-3.839-0.732-5.303-2.197c-2.929-2.929-2.929-7.678,0-10.606l17.243-17.243  c2.929-2.929,7.678-2.929,10.606,0c2.929,2.929,2.929,7.678,0,10.606l-17.243,17.243C39.548,178.687,37.629,179.419,35.709,179.419z  "/>
      <path d="M171.918,179.419c-1.919,0-3.839-0.732-5.303-2.197l-17.243-17.243c-2.929-2.929-2.929-7.678,0-10.606  c2.929-2.929,7.678-2.929,10.606,0l17.243,17.243c2.929,2.929,2.929,7.678,0,10.606  C175.757,178.687,173.838,179.419,171.918,179.419z"/>
      <path d="M52.952,60.452c-1.919,0-3.839-0.732-5.303-2.197L30.406,41.013c-2.929-2.929-2.929-7.677,0-10.606  c2.929-2.929,7.678-2.93,10.606,0l17.243,17.242c2.929,2.929,2.929,7.677,0,10.606C56.791,59.72,54.872,60.452,52.952,60.452z"/>
    </svg>

    <svg id='moon' viewBox="0 0 24 24" fill="inherit" xmlns="http://www.w3.org/2000/svg">
      <path d="M8.99873 18.9994C8.99873 19.8394 9.12873 20.6594 9.36873 21.4194C5.52873 20.0894 2.62873 16.5594 2.32873 12.4294C2.02873 8.03938 4.55873 3.93938 8.64873 2.21938C9.70873 1.77938 10.2487 2.09938 10.4787 2.32938C10.6987 2.54938 11.0087 3.07938 10.5687 4.08938C10.1187 5.12938 9.89873 6.22938 9.89873 7.36938C9.90873 9.40938 10.7087 11.2994 12.0087 12.7494C10.1787 14.2094 8.99873 16.4694 8.99873 18.9994Z" fill="inherit"/>
      <path opacity="0.4" d="M21.21 17.72C19.23 20.41 16.09 21.99 12.74 21.99C12.58 21.99 12.42 21.98 12.26 21.97C11.26 21.93 10.29 21.74 9.37 21.42C9.13 20.66 9 19.84 9 19C9 16.47 10.18 14.21 12.01 12.75C13.48 14.4 15.59 15.47 17.92 15.57C18.55 15.6 19.18 15.55 19.8 15.44C20.92 15.24 21.37 15.66 21.53 15.93C21.7 16.2 21.88 16.79 21.21 17.72Z" fill="inherit"/>
    </svg>
  </defs>
</svg>
